<svg xmlns="http://www.w3.org/2000/svg" viewBox="0 0 842.04 269.9"><defs><style>.cls-1{fill:none;}.cls-2{fill:#fe0000;}.cls-3{fill:#0054b4;}</style></defs><g id="Layer_2" data-name="Layer 2"><g id="Paystack"><path class="cls-1" d="M299.28,105.66c-30.41,0-54.73,25.09-54.73,56.26s23.56,55.49,54,55.49,54.73-25.09,54.73-55.49C353.25,130.75,328.93,106.42,299.28,105.66ZM283,168.72a5.72,5.72,0,0,1-2.39,4.8c-1.2.8-2.8,2-4,1.2s-.8-2.4-.8-3.6a28.24,28.24,0,0,0,.4-5.59v-5.2a14.62,14.62,0,0,1,13.19-14c2,0,4-.4,5.59,0,1.2,0,3.2-.8,3.6.8s-.4,2.79-1.6,4c-1.6,1.6-3.6,1.6-5.2,2-6.39.4-8.39,2.4-8.79,9.19Zm13.22-5.06c-3.2,2-6.8,1.6-10,.8-1.6-.4-1.6-2-1.6-3.6.4-1.6,1.2-2.4,2.8-2.4,1.59-.8,3.19-.4,4.79-.4h2.4c1.2.4,3.59-.8,4,.8S297.82,162.46,296.23,163.66Z"/><path class="cls-2" d="M519,54C439.15,66.9,399.62,158.12,446.75,225c2.28,3,3.8,5.32,8.36,3.8,17.49-4.56,35-6.84,52.45-9.88,4.57-.76,9.89,0,14.45-3-3-1.52-5.32-1.52-7.6-3-22.81-11.4-35.73-37.25-30.41-62.34,5.32-25.84,25.85-44.09,50.17-44.85,27.37,0,50.17,16,56.26,41.81s-2.28,46.37-24.33,62.34h0c-2.28,0-3,.76-4.56,3,3.11-.39,6-.38,8.73-.49a16.77,16.77,0,0,0,3-.2l.94-.11a12.39,12.39,0,0,1,3.27,0c17.48,0,35.73-.76,54,0,4.57,0,6.09-1.52,7.6-5.32,9.89-23.57,12.17-48.65,5.33-73C630,79.06,577.5,44.85,519,54Z"/><path class="cls-2" d="M173.09,51.69H135.84c-12.16.76-26.61,0-41.81,1.52C14.21,63.85-27.6,160.4,20.29,225a18,18,0,0,0,9.89,8.36c26.6,12.17,54.73,22,82.86,28.13a526.77,526.77,0,0,0,59.29,7.6c1.52.76,5.32,2.28,6.08-3,1.52-25.09-19-47.89-43.33-49.41h-22.8c-31.17,0-55.5-24.33-55.5-55.49a55.32,55.32,0,0,1,55.5-55.5h16c29.65,0,49.41-18.24,50.93-47.89C179.93,52.45,177.65,51.69,173.09,51.69Z"/><path class="cls-2" d="M808.59,217.41c-9.88-3-19.76-1.52-29.64-1.52-34.21,0-57.78-23.57-57.78-57.77V50.93C721.17,22.05,699.89,1.52,671,0c-4.56,0-6.08.76-6.08,5.32.76,54.73,0,109.47.76,163.44,0,14.44,3.8,28.12,10.65,41.05,1.52,3.8,3.8,5.32,8.35,6.08,25.09,3,48.66,8.36,73,15.2,28.89,8.36,57,19.77,84.38,32.69C842,242.49,828.36,224.25,808.59,217.41Z"/><path class="cls-3" d="M562.59,172.24V161.85a14.7,14.7,0,0,0-8-13.58c-5.19-2.8-10.39-2.4-15.18,1.19-1.6,1.2-2.4,1.6-4,.4a13.3,13.3,0,0,0-15.58-1.59c-5.19,2.79-8,7.19-7.59,13.58v4c0,1.6,0,3.59.8,4.39,0,1.2-1.2,2.8.8,3.6,1.59.4,2.79-.8,4-1.6a7.26,7.26,0,0,0,2.4-5.59v-6.8a6.51,6.51,0,0,1,6.79-6.79c3.2,0,6.4,2.8,6.8,6.79a60.58,60.58,0,0,1,.39,8.4,5.7,5.7,0,0,0,4.4,6c2,.4,2.8.4,2.8-2,0-3.6-.4-7.59,0-11.59,0-4.39,3.19-7.59,7.19-7.19a7.19,7.19,0,0,1,6.79,7.59v6.8c0,3.19,1.2,5.19,4,6.39C561.4,175,562.59,175,562.59,172.24Z"/><path class="cls-3" d="M291.8,153.14c1.6-.4,3.6-.4,5.2-2,1.2-1.2,2-2.39,1.6-4s-2.4-.8-3.6-.8c-1.6-.4-3.6,0-5.59,0a14.62,14.62,0,0,0-13.19,14v5.2a28.24,28.24,0,0,1-.4,5.59c0,1.2-.4,2.8.8,3.6s2.8-.4,4-1.2a5.72,5.72,0,0,0,2.39-4.8v-6.39C283.41,155.54,285.41,153.54,291.8,153.14Z"/><path class="cls-3" d="M294.63,158.06h-2.4c-1.6,0-3.2-.4-4.79.4-1.6,0-2.4.8-2.8,2.4,0,1.6,0,3.2,1.6,3.6,3.19.8,6.79,1.19,10-.8,1.59-1.2,2.79-3.2,2.39-4.8S295.83,158.46,294.63,158.06Z"/><path class="cls-2" d="M313,54C258.23,46.37,205,81.34,191.33,134.55,177.65,189.28,205.78,244.78,259,265.3c6.84,2.28,12.16,3.8,19.76,2.28,26.61-3.8,53.21-8.36,79.06-14.44,3-.76,5.32-1.52,6.84-3,28.89-22.81,44.85-51.69,44.85-94.26C409.5,107.18,368.45,60.81,313,54ZM298.52,217.41c-30.41,0-54-24.33-54-55.49s24.32-56.26,54.73-56.26c29.65.76,54,25.09,54,56.26C353.25,192.32,328.93,217.41,298.52,217.41Z"/></g></g></svg>