<svg xmlns="http://www.w3.org/2000/svg" viewBox="0 0 595.57 175.27"><defs><style>.cls-1,.cls-2{stroke:#ed1c24;stroke-miterlimit:10;}.cls-2{fill:#fff;}</style></defs><g id="Layer_2" data-name="Layer 2"><g id="Paystack"><path class="cls-1" d="M90.7.5h0a90.2,90.2,0,0,1,90.2,90.2v52.57a31.5,31.5,0,0,1-31.5,31.5H32A31.5,31.5,0,0,1,.5,143.27V90.7A90.2,90.2,0,0,1,90.7.5Z"/><g id="Layer_1_copy" data-name="Layer 1 copy"><path class="cls-2" d="M120.06,133.25a45.4,45.4,0,0,1-25.73-8,50.31,50.31,0,0,0,9.8-11.65,30.5,30.5,0,1,0-4.88-48.32v6.73l.13-.18v40.9l-.13.19v.17h-.12A45.6,45.6,0,1,1,87.05,50a50.6,50.6,0,0,0-9.79,11.64,30.51,30.51,0,1,0,6.88,46.27V59.52a45.61,45.61,0,1,1,35.92,73.73Z"/><path d="M229,88.84a21.41,21.41,0,0,0,8.23,5.54,30.1,30.1,0,0,0,10.86,1.86,31.15,31.15,0,0,0,5.72-.5,29.78,29.78,0,0,0,4.7-1.25A21.34,21.34,0,0,0,262,92.93a9.29,9.29,0,0,0,1.92-1.33,5,5,0,0,0,.73-.93,3.78,3.78,0,0,0,.36-1,7.59,7.59,0,0,0,.2-1.36c0-.53.07-1.17.07-1.92,0-1.09,0-2-.09-2.6a7.25,7.25,0,0,0-.27-1.52,1.35,1.35,0,0,0-.45-.72,1.28,1.28,0,0,0-.72-.18,3.31,3.31,0,0,0-1.65.72c-.71.48-1.61,1-2.71,1.63a23.41,23.41,0,0,1-4,1.65,17.77,17.77,0,0,1-5.47.75,15.72,15.72,0,0,1-6.27-1.2A12.35,12.35,0,0,1,239,81.31a17.29,17.29,0,0,1-3-6.22,33.13,33.13,0,0,1-1.06-8.93,33.11,33.11,0,0,1,1-8.45,19.16,19.16,0,0,1,2.92-6.4,12.86,12.86,0,0,1,10.88-5.49,16.92,16.92,0,0,1,5.45.78A22,22,0,0,1,259,48.37a25.81,25.81,0,0,1,2.69,1.76,3.08,3.08,0,0,0,1.72.79,1.08,1.08,0,0,0,.72-.27,2.06,2.06,0,0,0,.55-.86,5.94,5.94,0,0,0,.31-1.54c.06-.63.1-1.4.1-2.3s0-1.56-.07-2.13-.12-1.07-.2-1.49a4.16,4.16,0,0,0-.37-1,5.36,5.36,0,0,0-.83-1,11.24,11.24,0,0,0-2.15-1.47,20.12,20.12,0,0,0-3.46-1.51,28,28,0,0,0-4.18-1.06,26.68,26.68,0,0,0-4.7-.41,29,29,0,0,0-11,2,23.18,23.18,0,0,0-8.57,6A27.32,27.32,0,0,0,224,53.55a40.56,40.56,0,0,0-2,13.25,41.45,41.45,0,0,0,1.81,12.84A24.6,24.6,0,0,0,229,88.84Z"/><path d="M275.11,95.06a9.62,9.62,0,0,0,1.84.36,29.69,29.69,0,0,0,5.76,0,9.57,9.57,0,0,0,1.81-.36,1.92,1.92,0,0,0,1-.59,1.32,1.32,0,0,0,.27-.81V70h21.89V93.66a1.28,1.28,0,0,0,.29.81,2,2,0,0,0,.95.59,9.09,9.09,0,0,0,1.81.36,25.75,25.75,0,0,0,2.92.14,24.54,24.54,0,0,0,2.85-.14,9.4,9.4,0,0,0,1.81-.36,2.09,2.09,0,0,0,1-.59,1.23,1.23,0,0,0,.3-.81V38.4a1.28,1.28,0,0,0-.3-.82,2.18,2.18,0,0,0-1-.59,9.57,9.57,0,0,0-1.81-.36,24.84,24.84,0,0,0-2.85-.13,26.07,26.07,0,0,0-2.92.13,9.24,9.24,0,0,0-1.81.36,2.07,2.07,0,0,0-.95.59,1.27,1.27,0,0,0-.29.82V59.88H285.74V38.4a1.37,1.37,0,0,0-.27-.82,2,2,0,0,0-1-.59,9.57,9.57,0,0,0-1.81-.36,32,32,0,0,0-5.76,0,9.78,9.78,0,0,0-1.84.36,2.09,2.09,0,0,0-1,.59,1.32,1.32,0,0,0-.29.82V93.66a1.28,1.28,0,0,0,.29.81A2.09,2.09,0,0,0,275.11,95.06Z"/><path d="M335.8,95.28h29.4a1.18,1.18,0,0,0,.74-.25,1.76,1.76,0,0,0,.57-.79,5.8,5.8,0,0,0,.34-1.42,18.94,18.94,0,0,0,.11-2.19,17,17,0,0,0-.11-2.2,5.8,5.8,0,0,0-.34-1.42,1.76,1.76,0,0,0-.57-.79,1.18,1.18,0,0,0-.74-.25H344.12V69.46H361.8a1.26,1.26,0,0,0,.75-.23,1.58,1.58,0,0,0,.56-.74,5.51,5.51,0,0,0,.35-1.38,21.26,21.26,0,0,0,0-4.32,5,5,0,0,0-.35-1.4,1.89,1.89,0,0,0-.56-.78,1.24,1.24,0,0,0-.75-.24H344.12V46.09H365a1.17,1.17,0,0,0,.72-.25,1.84,1.84,0,0,0,.54-.8,5.8,5.8,0,0,0,.34-1.42,16.37,16.37,0,0,0,.12-2.15,17.12,17.12,0,0,0-.12-2.24,5.76,5.76,0,0,0-.34-1.44,1.75,1.75,0,0,0-.54-.8,1.2,1.2,0,0,0-.72-.22H335.8a3.7,3.7,0,0,0-2.51.88,3.59,3.59,0,0,0-1,2.87v51a3.6,3.6,0,0,0,1,2.87A3.7,3.7,0,0,0,335.8,95.28Z"/><path d="M380.3,88.84a21.41,21.41,0,0,0,8.23,5.54,30,30,0,0,0,10.85,1.86,31.07,31.07,0,0,0,5.72-.5,29.62,29.62,0,0,0,4.71-1.25,20.82,20.82,0,0,0,3.47-1.56,9.15,9.15,0,0,0,1.93-1.33,4.9,4.9,0,0,0,.72-.93,4.18,4.18,0,0,0,.37-1,8.61,8.61,0,0,0,.2-1.36c0-.53.07-1.17.07-1.92,0-1.09,0-2-.09-2.6a7.25,7.25,0,0,0-.27-1.52,1.3,1.3,0,0,0-.46-.72,1.28,1.28,0,0,0-.72-.18,3.38,3.38,0,0,0-1.65.72c-.71.48-1.61,1-2.71,1.63a23.41,23.41,0,0,1-4,1.65,17.72,17.72,0,0,1-5.47.75A15.64,15.64,0,0,1,395,85a12.28,12.28,0,0,1-4.75-3.64,17.12,17.12,0,0,1-3-6.22,33.1,33.1,0,0,1-1.07-8.93,33.09,33.09,0,0,1,1-8.45,18.78,18.78,0,0,1,2.92-6.4,12.86,12.86,0,0,1,10.87-5.49,16.92,16.92,0,0,1,5.45.78,22,22,0,0,1,3.93,1.77A25.81,25.81,0,0,1,413,50.13a3.14,3.14,0,0,0,1.72.79,1.12,1.12,0,0,0,.73-.27,2.05,2.05,0,0,0,.54-.86,6.33,6.33,0,0,0,.32-1.54c.05-.63.09-1.4.09-2.3s0-1.56-.07-2.13a10.8,10.8,0,0,0-.2-1.49,3.81,3.81,0,0,0-.36-1,5.11,5.11,0,0,0-.84-1,10.78,10.78,0,0,0-2.14-1.47,20.83,20.83,0,0,0-3.46-1.51,28.34,28.34,0,0,0-4.18-1.06,26.71,26.71,0,0,0-4.71-.41,29,29,0,0,0-11,2,23.18,23.18,0,0,0-8.57,6,27.32,27.32,0,0,0-5.56,9.72,40.56,40.56,0,0,0-2,13.25,41.45,41.45,0,0,0,1.81,12.84A24.31,24.31,0,0,0,380.3,88.84Z"/><path d="M426.38,95a8,8,0,0,0,1.83.39,32,32,0,0,0,5.76,0,7.88,7.88,0,0,0,1.81-.39,2,2,0,0,0,1-.61,1.34,1.34,0,0,0,.27-.86V65.8l17.68,27.76a3.34,3.34,0,0,0,.89,1.09,4.14,4.14,0,0,0,1.85.68,27.53,27.53,0,0,0,4.23.23,28.8,28.8,0,0,0,3.08-.14,9.36,9.36,0,0,0,1.92-.38,1.92,1.92,0,0,0,1-.63,1.65,1.65,0,0,0,.25-.89,3.09,3.09,0,0,0-.21-1,19.87,19.87,0,0,0-1.19-2.47L449,63.64l16.05-21c.76-1.18,1.26-2,1.54-2.58a3.54,3.54,0,0,0,.41-1.58,1.32,1.32,0,0,0-.27-.81,2.06,2.06,0,0,0-1-.62,9.19,9.19,0,0,0-1.88-.38,27,27,0,0,0-3-.13c-1.18,0-2.14,0-2.89.08a9.32,9.32,0,0,0-1.86.32,3.45,3.45,0,0,0-1.18.61,3.38,3.38,0,0,0-.76,1L437,63.36V38.44a1.42,1.42,0,0,0-.27-.86,2,2,0,0,0-.95-.59,9.57,9.57,0,0,0-1.81-.36,32.08,32.08,0,0,0-5.77,0,9.49,9.49,0,0,0-1.83.36,2.09,2.09,0,0,0-1,.59,1.37,1.37,0,0,0-.29.86V93.57a1.37,1.37,0,0,0,.29.86A2.12,2.12,0,0,0,426.38,95Z"/><path d="M500.22,95.28h14a46.9,46.9,0,0,0,13.41-1.69,24.22,24.22,0,0,0,9.56-5.32,23.33,23.33,0,0,0,6-9.34,39.77,39.77,0,0,0,2.11-13.76,35.36,35.36,0,0,0-1.95-12.26A23.06,23.06,0,0,0,537.69,44a24,24,0,0,0-9.18-5.43,42,42,0,0,0-13.27-1.83h-15a3.75,3.75,0,0,0-2.51.88,3.62,3.62,0,0,0-1,2.87v51a3.64,3.64,0,0,0,1,2.88A3.74,3.74,0,0,0,500.22,95.28Zm8.32-49.19h6a22.42,22.42,0,0,1,8.85,1.47,14.57,14.57,0,0,1,5.52,4.09A16.44,16.44,0,0,1,532,57.84a29.35,29.35,0,0,1,1,7.74,31.72,31.72,0,0,1-1.11,8.86,16.52,16.52,0,0,1-3.35,6.35A13.63,13.63,0,0,1,523,84.61a23.3,23.3,0,0,1-8.23,1.27h-6.2V46.09Z"/><path d="M595.46,83.82a7,7,0,0,0-.27-1.51,1.39,1.39,0,0,0-.45-.73,1.3,1.3,0,0,0-.72-.18,3.26,3.26,0,0,0-1.65.73c-.71.48-1.61,1-2.71,1.62a24.23,24.23,0,0,1-4,1.66,18.12,18.12,0,0,1-5.48.74A15.81,15.81,0,0,1,574,85a12.37,12.37,0,0,1-4.75-3.64,17.12,17.12,0,0,1-3-6.22,33.16,33.16,0,0,1-1.07-8.93,33.17,33.17,0,0,1,1-8.46A18.81,18.81,0,0,1,569,51.32a12.9,12.9,0,0,1,10.87-5.5,16.9,16.9,0,0,1,5.45.79,22,22,0,0,1,3.93,1.76A29.52,29.52,0,0,1,592,50.13a3.17,3.17,0,0,0,1.72.8,1.18,1.18,0,0,0,.73-.27,2.12,2.12,0,0,0,.54-.86,6.55,6.55,0,0,0,.32-1.54c.05-.64.08-1.4.08-2.31s0-1.55-.06-2.12-.12-1.07-.2-1.5a4.07,4.07,0,0,0-.37-1,5.06,5.06,0,0,0-.83-1,10.39,10.39,0,0,0-2.15-1.47,21.7,21.7,0,0,0-3.46-1.52,31.08,31.08,0,0,0-4.18-1.06,26.71,26.71,0,0,0-4.71-.41,28.77,28.77,0,0,0-11,2,23.27,23.27,0,0,0-8.57,6,27.64,27.64,0,0,0-5.57,9.72,40.92,40.92,0,0,0-2,13.25,41.47,41.47,0,0,0,1.81,12.85,24.63,24.63,0,0,0,5.21,9.2,21.41,21.41,0,0,0,8.23,5.54,30,30,0,0,0,10.85,1.86,31.26,31.26,0,0,0,5.73-.5,30.07,30.07,0,0,0,4.7-1.25,21.34,21.34,0,0,0,3.48-1.56,9.29,9.29,0,0,0,1.92-1.33,5,5,0,0,0,.73-.93,3.78,3.78,0,0,0,.36-1,8.61,8.61,0,0,0,.2-1.36c0-.53.07-1.16.07-1.92C595.55,85.33,595.52,84.47,595.46,83.82Z"/><rect x="218.45" y="110.45" width="358.75" height="1.56"/><path d="M232.85,136.79a9,9,0,0,0-1.87-1.38c-.7-.39-1.41-.76-2.14-1.1l-2.13-1a11,11,0,0,1-1.88-1.14,5.13,5.13,0,0,1-1.33-1.47,3.76,3.76,0,0,1-.5-2,4,4,0,0,1,.28-1.49,3.41,3.41,0,0,1,.84-1.24,4.11,4.11,0,0,1,1.4-.84,6,6,0,0,1,2-.3,6.8,6.8,0,0,1,2.06.28,8.89,8.89,0,0,1,1.56.62q.65.36,1.08.63a1.44,1.44,0,0,0,.65.28.26.26,0,0,0,.2-.08.44.44,0,0,0,.14-.22,1.12,1.12,0,0,0,.09-.35,3,3,0,0,0,0-.45c0-.17,0-.33,0-.45a1.22,1.22,0,0,0-.06-.31,1,1,0,0,0-.09-.23,1.72,1.72,0,0,0-.23-.27,3.47,3.47,0,0,0-.75-.48,8.63,8.63,0,0,0-1.29-.54,11.4,11.4,0,0,0-1.53-.39,7.94,7.94,0,0,0-1.59-.16,9.19,9.19,0,0,0-2.9.43,6.55,6.55,0,0,0-2.26,1.22,5.52,5.52,0,0,0-1.46,1.94,6.27,6.27,0,0,0-.52,2.59,5.86,5.86,0,0,0,.51,2.55,6.41,6.41,0,0,0,1.31,1.88,9.6,9.6,0,0,0,1.86,1.39c.69.4,1.4.77,2.12,1.11l2.13,1A11.93,11.93,0,0,1,230.4,138a5.28,5.28,0,0,1,1.31,1.45,3.81,3.81,0,0,1,.5,2,4.81,4.81,0,0,1-.39,2,4.21,4.21,0,0,1-1.11,1.48,4.91,4.91,0,0,1-1.69.91,7.07,7.07,0,0,1-2.15.32,8.7,8.7,0,0,1-2.53-.34,11.79,11.79,0,0,1-1.87-.73,13.81,13.81,0,0,1-1.27-.73,1.52,1.52,0,0,0-.76-.34.59.59,0,0,0-.22,0,.37.37,0,0,0-.17.18,1,1,0,0,0-.1.34,2.89,2.89,0,0,0,.05,1.29,1.32,1.32,0,0,0,.31.51,3.34,3.34,0,0,0,.78.54,9.27,9.27,0,0,0,1.39.63,12.91,12.91,0,0,0,1.88.53,11.52,11.52,0,0,0,2.25.22,10.08,10.08,0,0,0,3.23-.49,7.44,7.44,0,0,0,2.56-1.39,6.44,6.44,0,0,0,1.67-2.22,7,7,0,0,0,.6-3,6,6,0,0,0-.5-2.53A5.88,5.88,0,0,0,232.85,136.79Z"/><path d="M247.29,131.67a.49.49,0,0,0,.42-.24,1.28,1.28,0,0,0,.16-.72,2.63,2.63,0,0,0,0-.43,1,1,0,0,0-.12-.31.52.52,0,0,0-.18-.18.47.47,0,0,0-.24,0h-4.8v-4.28a.42.42,0,0,0-.06-.21.41.41,0,0,0-.18-.16,1.23,1.23,0,0,0-.35-.1,4.45,4.45,0,0,0-.57,0,4.33,4.33,0,0,0-.55,0,1.34,1.34,0,0,0-.35.1.35.35,0,0,0-.23.37v4.28h-2.6a.6.6,0,0,0-.24,0,.52.52,0,0,0-.18.18,1,1,0,0,0-.11.31,1.8,1.8,0,0,0,0,.43,1.38,1.38,0,0,0,.15.72.47.47,0,0,0,.42.24h2.6v10.82a11.09,11.09,0,0,0,.26,2.54,4.39,4.39,0,0,0,.83,1.78,3.52,3.52,0,0,0,1.48,1.05,6.24,6.24,0,0,0,2.2.34,6.91,6.91,0,0,0,.78,0,5.86,5.86,0,0,0,.77-.14,3,3,0,0,0,.64-.21,1.32,1.32,0,0,0,.42-.27.93.93,0,0,0,.22-.39,3,3,0,0,0,.06-.66,2.37,2.37,0,0,0,0-.41,1.31,1.31,0,0,0-.07-.27.39.39,0,0,0-.13-.15.48.48,0,0,0-.18,0,.78.78,0,0,0-.35.1l-.49.21a4.29,4.29,0,0,1-.66.21,3.12,3.12,0,0,1-.84.1,2.16,2.16,0,0,1-2.07-1,6.53,6.53,0,0,1-.57-3V131.67Z"/><path d="M262.67,131.09a4.93,4.93,0,0,0-2-1.24,9.13,9.13,0,0,0-3-.44,9.49,9.49,0,0,0-1.84.18,10.93,10.93,0,0,0-1.73.45,11.07,11.07,0,0,0-1.41.6,4.06,4.06,0,0,0-.85.57,1.06,1.06,0,0,0-.3.48,3.52,3.52,0,0,0-.05.64,2.33,2.33,0,0,0,0,.4.66.66,0,0,0,.1.27.31.31,0,0,0,.16.14.46.46,0,0,0,.21,0,1.6,1.6,0,0,0,.64-.28c.3-.19.69-.4,1.15-.63a10.83,10.83,0,0,1,1.61-.63,7.42,7.42,0,0,1,2.08-.28,6.25,6.25,0,0,1,2,.29,3.36,3.36,0,0,1,1.35.87,3.43,3.43,0,0,1,.75,1.43,7.35,7.35,0,0,1,.23,2v1.5H259a15,15,0,0,0-3.42.36,8,8,0,0,0-2.63,1.06,5,5,0,0,0-1.69,1.78,5,5,0,0,0-.6,2.51,5.34,5.34,0,0,0,.4,2.12,4.52,4.52,0,0,0,1.16,1.6,5.09,5.09,0,0,0,1.83,1,7.85,7.85,0,0,0,2.46.36,6.6,6.6,0,0,0,2.93-.69,9.19,9.19,0,0,0,2.59-2v1.94a.38.38,0,0,0,.12.3.75.75,0,0,0,.36.15,2.9,2.9,0,0,0,.56.05,2.64,2.64,0,0,0,.55-.05.73.73,0,0,0,.32-.15.37.37,0,0,0,.13-.3V135.75a10,10,0,0,0-.33-2.68A4.71,4.71,0,0,0,262.67,131.09Zm-.87,12.33a11.61,11.61,0,0,1-2.51,2.16,5,5,0,0,1-2.55.7,3.81,3.81,0,0,1-2.69-.89,3.16,3.16,0,0,1-1-2.4,3.32,3.32,0,0,1,.34-1.54,3.05,3.05,0,0,1,1-1.16,5.1,5.1,0,0,1,1.73-.73,10.82,10.82,0,0,1,2.42-.24h3.17v4.1Z"/><path d="M280,130.25a1.07,1.07,0,0,0-.06-.17.7.7,0,0,0-.15-.15,1.4,1.4,0,0,0-.42-.19,3.8,3.8,0,0,0-.67-.19,6.92,6.92,0,0,0-.7-.1c-.22,0-.41,0-.58,0a4.64,4.64,0,0,0-1.12.14,3.74,3.74,0,0,0-1.13.51,7.17,7.17,0,0,0-1.21,1,14.42,14.42,0,0,0-1.39,1.78v-2.76a.52.52,0,0,0,0-.21.41.41,0,0,0-.16-.16,1.08,1.08,0,0,0-.33-.1,4,4,0,0,0-.54,0,3.79,3.79,0,0,0-.53,0,1.29,1.29,0,0,0-.33.1.35.35,0,0,0-.23.37v17.41a.49.49,0,0,0,0,.21.37.37,0,0,0,.19.15,1.23,1.23,0,0,0,.35.1,3,3,0,0,0,.55,0,3,3,0,0,0,.57,0,1,1,0,0,0,.35-.1.38.38,0,0,0,.18-.15.5.5,0,0,0,.05-.21V135.76c.49-.78.94-1.44,1.34-2a9.83,9.83,0,0,1,1.15-1.3,4.52,4.52,0,0,1,1.05-.71,2.43,2.43,0,0,1,1-.22,3.35,3.35,0,0,1,.81.09l.67.18.54.18a1.13,1.13,0,0,0,.41.09.23.23,0,0,0,.18-.07.56.56,0,0,0,.11-.19,1.17,1.17,0,0,0,.07-.33c0-.13,0-.29,0-.48s0-.35,0-.48S280.05,130.32,280,130.25Z"/><path d="M291.81,131.67a.47.47,0,0,0,.41-.24,1.28,1.28,0,0,0,.16-.72,1.8,1.8,0,0,0,0-.43,1,1,0,0,0-.11-.31.52.52,0,0,0-.18-.18.47.47,0,0,0-.24,0H287v-4.28a.54.54,0,0,0-.05-.21.47.47,0,0,0-.18-.16,1.23,1.23,0,0,0-.35-.1,4.45,4.45,0,0,0-.57,0,4.33,4.33,0,0,0-.55,0,1.23,1.23,0,0,0-.35.1.41.41,0,0,0-.18.16.41.41,0,0,0,0,.21v4.28h-2.6a.6.6,0,0,0-.24,0,.52.52,0,0,0-.18.18,1,1,0,0,0-.11.31,1.8,1.8,0,0,0,0,.43,1.28,1.28,0,0,0,.16.72.47.47,0,0,0,.42.24h2.6v10.82A11.09,11.09,0,0,0,285,145a4.39,4.39,0,0,0,.83,1.78,3.49,3.49,0,0,0,1.49,1.05,6.14,6.14,0,0,0,2.19.34,7.21,7.21,0,0,0,.79,0,5.7,5.7,0,0,0,.76-.14,3.31,3.31,0,0,0,.65-.21,1.6,1.6,0,0,0,.42-.27,1,1,0,0,0,.21-.39,2.89,2.89,0,0,0,.07-.66,2.27,2.27,0,0,0,0-.41,1.31,1.31,0,0,0-.07-.27.32.32,0,0,0-.13-.15.47.47,0,0,0-.17,0,.82.82,0,0,0-.36.1l-.48.21a4.82,4.82,0,0,1-.67.21,3.12,3.12,0,0,1-.84.1,2.16,2.16,0,0,1-2.07-1,6.54,6.54,0,0,1-.56-3V131.67Z"/><path d="M317,136.79a9,9,0,0,0-1.88-1.38c-.7-.39-1.41-.76-2.13-1.1l-2.14-1a11.45,11.45,0,0,1-1.88-1.14,5.24,5.24,0,0,1-1.32-1.47,3.67,3.67,0,0,1-.51-2,4.15,4.15,0,0,1,.28-1.49,3.41,3.41,0,0,1,.84-1.24,4.11,4.11,0,0,1,1.4-.84,6,6,0,0,1,2-.3,6.8,6.8,0,0,1,2.06.28,8.89,8.89,0,0,1,1.56.62q.65.36,1.08.63a1.4,1.4,0,0,0,.65.28.27.27,0,0,0,.2-.08.44.44,0,0,0,.14-.22,1.48,1.48,0,0,0,.09-.35,3,3,0,0,0,0-.45c0-.17,0-.33,0-.45a1.22,1.22,0,0,0-.06-.31,1.85,1.85,0,0,0-.09-.23,1.72,1.72,0,0,0-.23-.27,3.47,3.47,0,0,0-.75-.48,8.63,8.63,0,0,0-1.29-.54,11.4,11.4,0,0,0-1.53-.39,7.94,7.94,0,0,0-1.59-.16,9.19,9.19,0,0,0-2.9.43,6.64,6.64,0,0,0-2.26,1.22,5.52,5.52,0,0,0-1.46,1.94,6.27,6.27,0,0,0-.52,2.59,5.86,5.86,0,0,0,.51,2.55,6.41,6.41,0,0,0,1.31,1.88,9.3,9.3,0,0,0,1.86,1.39c.69.4,1.4.77,2.12,1.11l2.13,1a11.93,11.93,0,0,1,1.86,1.13,5.28,5.28,0,0,1,1.31,1.45,3.81,3.81,0,0,1,.5,2,4.81,4.81,0,0,1-.39,2,4.21,4.21,0,0,1-1.11,1.48,5,5,0,0,1-1.7.91,7,7,0,0,1-2.15.32,8.75,8.75,0,0,1-2.53-.34,11.79,11.79,0,0,1-1.87-.73c-.51-.27-.94-.51-1.27-.73a1.49,1.49,0,0,0-.75-.34.54.54,0,0,0-.22,0,.35.35,0,0,0-.18.18,1.37,1.37,0,0,0-.1.34,2.77,2.77,0,0,0,0,.54,2.35,2.35,0,0,0,.1.75,1.19,1.19,0,0,0,.3.51,3.34,3.34,0,0,0,.78.54,10.29,10.29,0,0,0,1.39.63,12.7,12.7,0,0,0,1.89.53,11.45,11.45,0,0,0,2.25.22,10.17,10.17,0,0,0,3.23-.49,7.3,7.3,0,0,0,2.55-1.39,6.35,6.35,0,0,0,1.68-2.22,7.17,7.17,0,0,0,.59-3,5.93,5.93,0,0,0-1.8-4.4Z"/><path d="M337,131.89a6.35,6.35,0,0,0-2.55-1.84,9.28,9.28,0,0,0-3.56-.63,9.16,9.16,0,0,0-3.73.71,7.32,7.32,0,0,0-2.67,2,8.43,8.43,0,0,0-1.59,3,12.88,12.88,0,0,0-.53,3.82,13.54,13.54,0,0,0,.51,3.87,7.79,7.79,0,0,0,1.54,2.91A6.69,6.69,0,0,0,327,147.6a9.17,9.17,0,0,0,3.57.64,8.93,8.93,0,0,0,3.71-.72,7.34,7.34,0,0,0,2.67-2,8.74,8.74,0,0,0,1.6-3,12.87,12.87,0,0,0,.54-3.82,13.14,13.14,0,0,0-.52-3.85A7.94,7.94,0,0,0,337,131.89Zm-.71,9.89a6.65,6.65,0,0,1-1.06,2.33,5.08,5.08,0,0,1-1.86,1.54,7,7,0,0,1-5.52,0,4.81,4.81,0,0,1-1.81-1.62,7,7,0,0,1-1-2.37,13.94,13.94,0,0,1-.29-2.86,11.58,11.58,0,0,1,.35-2.9,6.8,6.8,0,0,1,1.07-2.34,5,5,0,0,1,1.85-1.55,6.11,6.11,0,0,1,2.7-.56,5.83,5.83,0,0,1,2.82.61,4.84,4.84,0,0,1,1.81,1.63,7.07,7.07,0,0,1,1,2.37,13.64,13.64,0,0,1,.29,2.83A11.26,11.26,0,0,1,336.3,141.78Z"/><path d="M367.73,131.55a4.8,4.8,0,0,0-1.81-1.55,5.92,5.92,0,0,0-2.75-.58,5.13,5.13,0,0,0-1.33.18,6.34,6.34,0,0,0-1.4.6,9.43,9.43,0,0,0-1.51,1.09,19.18,19.18,0,0,0-1.7,1.69,6.44,6.44,0,0,0-.76-1.45,4.91,4.91,0,0,0-1.11-1.12,5.17,5.17,0,0,0-1.51-.73,6.82,6.82,0,0,0-2-.26,5.47,5.47,0,0,0-2.68.75,11.78,11.78,0,0,0-2.84,2.42v-2.46a.46.46,0,0,0-.05-.21.41.41,0,0,0-.16-.16.86.86,0,0,0-.33-.1,4,4,0,0,0-.54,0,3.89,3.89,0,0,0-.53,0,1,1,0,0,0-.33.1.36.36,0,0,0-.18.16.36.36,0,0,0-.05.21v17.4a.36.36,0,0,0,.05.21.32.32,0,0,0,.18.16,1.62,1.62,0,0,0,.36.1,4.06,4.06,0,0,0,.54,0,4.34,4.34,0,0,0,.57,0,1.68,1.68,0,0,0,.35-.1.4.4,0,0,0,.18-.16.47.47,0,0,0,.06-.21V135.05a15.9,15.9,0,0,1,2.7-2.77,4,4,0,0,1,2.45-.94,3.53,3.53,0,0,1,1.7.39,3.27,3.27,0,0,1,1.19,1.12,5,5,0,0,1,.7,1.73,9.7,9.7,0,0,1,.23,2.24v10.71a.5.5,0,0,0,0,.21.31.31,0,0,0,.18.15,1.31,1.31,0,0,0,.36.1,2.81,2.81,0,0,0,.55,0,2.88,2.88,0,0,0,.55,0,.91.91,0,0,0,.34-.1.37.37,0,0,0,.19-.15.5.5,0,0,0,.05-.21V135a17,17,0,0,1,2.72-2.76,4.08,4.08,0,0,1,2.46-.95,3.45,3.45,0,0,1,1.7.4,3.32,3.32,0,0,1,1.19,1.11,5.31,5.31,0,0,1,.69,1.73,10.35,10.35,0,0,1,.23,2.24v10.71a.46.46,0,0,0,0,.21.36.36,0,0,0,.18.16,2.86,2.86,0,0,0,.36.1,4.45,4.45,0,0,0,.57,0,4.22,4.22,0,0,0,.55,0,1.51,1.51,0,0,0,.35-.1.49.49,0,0,0,.19-.16.46.46,0,0,0,0-.21V136.6a12.93,12.93,0,0,0-.29-2.77A6.84,6.84,0,0,0,367.73,131.55Z"/><path d="M387.83,131.83a6.38,6.38,0,0,0-2.28-1.76,7.76,7.76,0,0,0-3.35-.66,8.25,8.25,0,0,0-3.31.65,7,7,0,0,0-2.55,1.86,8.53,8.53,0,0,0-1.63,3,13.11,13.11,0,0,0-.56,4,13.43,13.43,0,0,0,.55,4.06,8,8,0,0,0,1.61,2.94,6.67,6.67,0,0,0,2.61,1.78,9.7,9.7,0,0,0,3.58.61,12.82,12.82,0,0,0,2.3-.19,15.75,15.75,0,0,0,1.87-.44,8.89,8.89,0,0,0,1.31-.48,3.09,3.09,0,0,0,.59-.33.94.94,0,0,0,.16-.2.5.5,0,0,0,.08-.2,1.55,1.55,0,0,0,.05-.23,1.14,1.14,0,0,0,0-.26,3.23,3.23,0,0,0,0-.48,1.14,1.14,0,0,0-.08-.32.4.4,0,0,0-.16-.18.37.37,0,0,0-.21-.06,1.81,1.81,0,0,0-.64.21c-.3.14-.69.31-1.16.48a13.15,13.15,0,0,1-1.66.47,10.34,10.34,0,0,1-2.18.21,7.4,7.4,0,0,1-2.88-.5,4.72,4.72,0,0,1-1.9-1.43,6,6,0,0,1-1.05-2.24,12.55,12.55,0,0,1-.31-2.93h11.86a1.23,1.23,0,0,0,.71-.25,1.09,1.09,0,0,0,.37-1v-.46a11,11,0,0,0-.42-3.07A7.27,7.27,0,0,0,387.83,131.83Zm-11.22,5.43A7.53,7.53,0,0,1,377,135a5.83,5.83,0,0,1,1-1.88,5.06,5.06,0,0,1,4-1.78,4.82,4.82,0,0,1,3.87,1.55,6.23,6.23,0,0,1,1.27,4.33Z"/><path d="M402.43,131.67a.47.47,0,0,0,.41-.24,1.27,1.27,0,0,0,.17-.72,1.8,1.8,0,0,0,0-.43,1.25,1.25,0,0,0-.11-.31.54.54,0,0,0-.19-.18.46.46,0,0,0-.23,0h-4.81v-4.28a.42.42,0,0,0-.06-.21.41.41,0,0,0-.18-.16,1.14,1.14,0,0,0-.35-.1,4.17,4.17,0,0,0-.56,0,4.22,4.22,0,0,0-.55,0,1.42,1.42,0,0,0-.36.1.41.41,0,0,0-.18.16.41.41,0,0,0-.05.21v4.28h-2.6a.6.6,0,0,0-.24,0,.52.52,0,0,0-.18.18,1,1,0,0,0-.11.31,1.8,1.8,0,0,0,0,.43,1.28,1.28,0,0,0,.16.72.47.47,0,0,0,.42.24h2.6v10.82a11.09,11.09,0,0,0,.26,2.54,4.39,4.39,0,0,0,.83,1.78,3.49,3.49,0,0,0,1.49,1.05,6.14,6.14,0,0,0,2.19.34,7.21,7.21,0,0,0,.79,0,5.7,5.7,0,0,0,.76-.14,3.31,3.31,0,0,0,.65-.21,1.6,1.6,0,0,0,.42-.27.91.91,0,0,0,.21-.39,2.42,2.42,0,0,0,.07-.66,2.37,2.37,0,0,0,0-.41,1.25,1.25,0,0,0-.08-.27.31.31,0,0,0-.12-.15.48.48,0,0,0-.18,0,.82.82,0,0,0-.36.1l-.49.21a4.29,4.29,0,0,1-.66.21,3.12,3.12,0,0,1-.84.1,2.13,2.13,0,0,1-2.06-1,6.4,6.4,0,0,1-.57-3V131.67Z"/><path d="M420.32,131.55a5,5,0,0,0-1.89-1.55,6.44,6.44,0,0,0-2.89-.58,6.17,6.17,0,0,0-2.84.74,10.39,10.39,0,0,0-2.85,2.32V121.61a.46.46,0,0,0-.05-.21.38.38,0,0,0-.19-.16.86.86,0,0,0-.34-.1,4.45,4.45,0,0,0-.57,0,4.22,4.22,0,0,0-.55,0,1,1,0,0,0-.35.1.34.34,0,0,0-.19.16.46.46,0,0,0-.05.21v25.92a.46.46,0,0,0,.05.21.31.31,0,0,0,.19.16,1.51,1.51,0,0,0,.35.1,4.22,4.22,0,0,0,.55,0,4.45,4.45,0,0,0,.57,0,1.41,1.41,0,0,0,.34-.1.38.38,0,0,0,.19-.16.46.46,0,0,0,.05-.21V135.05a14.73,14.73,0,0,1,2.79-2.77,4.56,4.56,0,0,1,2.66-.94,4,4,0,0,1,1.81.39,3.37,3.37,0,0,1,1.28,1.12,5.07,5.07,0,0,1,.75,1.73,11,11,0,0,1,.25,2.62v10.33a.39.39,0,0,0,.06.21.34.34,0,0,0,.18.15,1.14,1.14,0,0,0,.35.1,3.87,3.87,0,0,0,1.11,0,.91.91,0,0,0,.35-.1.38.38,0,0,0,.18-.15.39.39,0,0,0,.06-.21V137a13.58,13.58,0,0,0-.32-3.15A6.32,6.32,0,0,0,420.32,131.55Z"/><path d="M429.18,122.71a1.74,1.74,0,0,0-1.2.32,2.62,2.62,0,0,0,0,2.49,2.3,2.3,0,0,0,2.36,0,1.77,1.77,0,0,0,.32-1.25,1.8,1.8,0,0,0-.31-1.24A1.65,1.65,0,0,0,429.18,122.71Z"/><path d="M430.07,129.76a.91.91,0,0,0-.35-.1,4.28,4.28,0,0,0-.56,0,4.22,4.22,0,0,0-.55,0,1,1,0,0,0-.36.1.36.36,0,0,0-.18.16.46.46,0,0,0-.05.21v17.4a.46.46,0,0,0,.05.21.32.32,0,0,0,.18.16,1.79,1.79,0,0,0,.36.1,4.11,4.11,0,0,0,.55,0,4.17,4.17,0,0,0,.56,0,1.51,1.51,0,0,0,.35-.1.49.49,0,0,0,.19-.16.46.46,0,0,0,.05-.21v-17.4a.46.46,0,0,0-.05-.21A.51.51,0,0,0,430.07,129.76Z"/><path d="M449.48,131.55a5.18,5.18,0,0,0-1.9-1.55,6.4,6.4,0,0,0-2.88-.58,6.18,6.18,0,0,0-2.87.75,10.86,10.86,0,0,0-2.94,2.42v-2.46a.46.46,0,0,0-.05-.21.41.41,0,0,0-.16-.16.86.86,0,0,0-.33-.1,4,4,0,0,0-.54,0,3.79,3.79,0,0,0-.53,0,.92.92,0,0,0-.33.1.36.36,0,0,0-.18.16.36.36,0,0,0,0,.21v17.4a.36.36,0,0,0,0,.21.32.32,0,0,0,.18.16,1.51,1.51,0,0,0,.35.1,4.33,4.33,0,0,0,.55,0,4.45,4.45,0,0,0,.57,0,1.88,1.88,0,0,0,.35-.1.4.4,0,0,0,.18-.16.36.36,0,0,0,.05-.21V135.05a14.73,14.73,0,0,1,2.79-2.77,4.59,4.59,0,0,1,2.66-.94,4.06,4.06,0,0,1,1.82.39,3.34,3.34,0,0,1,1.27,1.12,5.07,5.07,0,0,1,.75,1.73,11,11,0,0,1,.25,2.62v10.33a.39.39,0,0,0,.06.21.38.38,0,0,0,.18.15,1.14,1.14,0,0,0,.35.1,3.87,3.87,0,0,0,1.11,0,.91.91,0,0,0,.35-.1.38.38,0,0,0,.18-.15.39.39,0,0,0,.06-.21V137a13.58,13.58,0,0,0-.32-3.15A6.48,6.48,0,0,0,449.48,131.55Z"/><path d="M470.5,129.73h-5.13c-.38-.09-.78-.17-1.22-.23a12.57,12.57,0,0,0-1.42-.09,7.6,7.6,0,0,0-2.61.44,5.81,5.81,0,0,0-2.05,1.24,5.69,5.69,0,0,0-1.34,2,6.83,6.83,0,0,0-.48,2.62,6.12,6.12,0,0,0,.31,2.08,5.53,5.53,0,0,0,.87,1.6,7.31,7.31,0,0,0-1.12,1.64,4.7,4.7,0,0,0-.46,2.1,2.79,2.79,0,0,0,.46,1.52,3.68,3.68,0,0,0,1.44,1.22,12.08,12.08,0,0,0-1.09,1,5.76,5.76,0,0,0-.78,1,4.1,4.1,0,0,0-.47,1.13,4.75,4.75,0,0,0-.16,1.27,4,4,0,0,0,.41,1.83,3.88,3.88,0,0,0,1.33,1.48,7.42,7.42,0,0,0,2.35,1,15,15,0,0,0,3.47.35,12.4,12.4,0,0,0,3.67-.47A7.23,7.23,0,0,0,469,153.2a4.94,4.94,0,0,0,1.46-1.85,5.31,5.31,0,0,0,.48-2.22,3.9,3.9,0,0,0-.47-1.94,4.18,4.18,0,0,0-1.25-1.4,5.72,5.72,0,0,0-1.83-.85,10,10,0,0,0-2.24-.33l-4.71-.19a3.24,3.24,0,0,1-1.82-.54,1.46,1.46,0,0,1-.7-1.23,2.5,2.5,0,0,1,.25-1.15,3.5,3.5,0,0,1,.63-.89,5.07,5.07,0,0,0,1.65.81,7.48,7.48,0,0,0,2.23.33,7.7,7.7,0,0,0,2.64-.43,5.85,5.85,0,0,0,2.05-1.22,5.27,5.27,0,0,0,1.34-1.95,6.81,6.81,0,0,0,.47-2.63,6.92,6.92,0,0,0-.31-2.05,4.7,4.7,0,0,0-1.13-1.8h2.75a.57.57,0,0,0,.45-.21,1.27,1.27,0,0,0,.17-.75A1.46,1.46,0,0,0,471,130,.51.51,0,0,0,470.5,129.73ZM458,148.37a5.08,5.08,0,0,1,.7-.94,9.3,9.3,0,0,1,1.14-1l5.06.17a5.28,5.28,0,0,1,2.75.73,2.18,2.18,0,0,1,1,1.95,3.41,3.41,0,0,1-.29,1.4,2.92,2.92,0,0,1-1,1.19,5.15,5.15,0,0,1-1.76.84,9.82,9.82,0,0,1-2.7.31,8.88,8.88,0,0,1-4-.73,2.31,2.31,0,0,1-1.43-2.15,3.69,3.69,0,0,1,.1-.87A3,3,0,0,1,458,148.37Zm8.61-11.2a3.9,3.9,0,0,1-.76,1.37,3.42,3.42,0,0,1-1.28.93,4.39,4.39,0,0,1-1.81.35,4.08,4.08,0,0,1-3.05-1.11,4.12,4.12,0,0,1-1.09-3,5.79,5.79,0,0,1,.25-1.68,4.09,4.09,0,0,1,.75-1.38,3.54,3.54,0,0,1,1.27-.94,4.36,4.36,0,0,1,1.79-.35,4.13,4.13,0,0,1,3.09,1.11,4.27,4.27,0,0,1,1.08,3.1A5.38,5.38,0,0,1,466.58,137.17Z"/><path d="M499.69,125.06a.69.69,0,0,0,.19-.19.86.86,0,0,0,.11-.32,1.94,1.94,0,0,0,0-.44,2.23,2.23,0,0,0,0-.47,1,1,0,0,0-.11-.34.61.61,0,0,0-.19-.2.45.45,0,0,0-.25-.07H482.25a.44.44,0,0,0-.26.07.7.7,0,0,0-.18.2,1,1,0,0,0-.11.34,2.23,2.23,0,0,0,0,.47,1.89,1.89,0,0,0,0,.44.86.86,0,0,0,.11.32.66.66,0,0,0,.18.19.44.44,0,0,0,.26.07h7.42v22.4a.37.37,0,0,0,.06.21.38.38,0,0,0,.19.16,1.73,1.73,0,0,0,.37.1,4.44,4.44,0,0,0,.55,0,4.39,4.39,0,0,0,.56,0,1.92,1.92,0,0,0,.37-.1.38.38,0,0,0,.19-.16.37.37,0,0,0,.06-.21v-22.4h7.42A.45.45,0,0,0,499.69,125.06Z"/><path d="M513.38,131.89a6.49,6.49,0,0,0-2.55-1.84,9.33,9.33,0,0,0-3.57-.63,9.16,9.16,0,0,0-3.73.71,7.4,7.4,0,0,0-2.67,2,8.43,8.43,0,0,0-1.59,3,13.21,13.21,0,0,0-.53,3.82,13.54,13.54,0,0,0,.51,3.87,7.79,7.79,0,0,0,1.54,2.91,6.69,6.69,0,0,0,2.55,1.85,9.14,9.14,0,0,0,3.57.64,8.93,8.93,0,0,0,3.71-.72,7.3,7.3,0,0,0,2.66-2,8.76,8.76,0,0,0,1.61-3,12.87,12.87,0,0,0,.54-3.82,13.48,13.48,0,0,0-.52-3.85A7.92,7.92,0,0,0,513.38,131.89Zm-.71,9.89a6.66,6.66,0,0,1-1.07,2.33,5,5,0,0,1-1.86,1.54,6,6,0,0,1-2.69.55,6,6,0,0,1-2.82-.59,4.81,4.81,0,0,1-1.81-1.62,6.79,6.79,0,0,1-1-2.37,13.94,13.94,0,0,1-.29-2.86,11.14,11.14,0,0,1,.35-2.9,6.62,6.62,0,0,1,1.07-2.34,4.9,4.9,0,0,1,1.85-1.55,6.08,6.08,0,0,1,2.7-.56A5.85,5.85,0,0,1,510,132a4.84,4.84,0,0,1,1.81,1.63,6.87,6.87,0,0,1,1,2.37,13.64,13.64,0,0,1,.29,2.83A12.19,12.19,0,0,1,512.67,141.78Z"/><path d="M534.37,121.34a1.26,1.26,0,0,0-.35-.09,3,3,0,0,0-.57,0,3,3,0,0,0-.55,0,1.26,1.26,0,0,0-.35.09.42.42,0,0,0-.19.15.54.54,0,0,0,0,.22v10.48a10.28,10.28,0,0,0-2.58-2.07,6,6,0,0,0-2.88-.7,7.22,7.22,0,0,0-3.21.67,6.38,6.38,0,0,0-2.33,1.93,8.89,8.89,0,0,0-1.42,3,15.39,15.39,0,0,0-.48,4,16.33,16.33,0,0,0,.38,3.56,8.56,8.56,0,0,0,1.22,2.94,6.22,6.22,0,0,0,2.16,2,6.65,6.65,0,0,0,3.21.73,6.32,6.32,0,0,0,3.23-.86,12.27,12.27,0,0,0,2.87-2.36v2.5a.35.35,0,0,0,.07.23.32.32,0,0,0,.19.15,1.12,1.12,0,0,0,.32.09,3.68,3.68,0,0,0,.51,0,3.23,3.23,0,0,0,.48,0,.87.87,0,0,0,.32-.09.28.28,0,0,0,.17-.15.52.52,0,0,0,.05-.23V121.71a.43.43,0,0,0-.06-.22A.36.36,0,0,0,534.37,121.34Zm-2,21.23a19.19,19.19,0,0,1-1.59,1.74,10.44,10.44,0,0,1-1.43,1.15,5.25,5.25,0,0,1-1.35.63,4.74,4.74,0,0,1-1.35.19,4,4,0,0,1-2.31-.64,4.74,4.74,0,0,1-1.48-1.71,8.46,8.46,0,0,1-.79-2.43,17.29,17.29,0,0,1-.22-2.81,13.08,13.08,0,0,1,.26-2.65,7.77,7.77,0,0,1,.87-2.34,5,5,0,0,1,1.54-1.68,4,4,0,0,1,2.27-.63,4.9,4.9,0,0,1,2.8.92,14.27,14.27,0,0,1,2.78,2.68v7.58Z"/><path d="M551.81,131.09a4.93,4.93,0,0,0-2-1.24,9.13,9.13,0,0,0-3-.44,9.66,9.66,0,0,0-1.85.18,10.8,10.8,0,0,0-1.72.45,11.07,11.07,0,0,0-1.41.6,3.92,3.92,0,0,0-.86.57,1,1,0,0,0-.29.48,2.72,2.72,0,0,0-.06.64,2.33,2.33,0,0,0,0,.4.66.66,0,0,0,.1.27.35.35,0,0,0,.16.14.49.49,0,0,0,.21,0,1.62,1.62,0,0,0,.65-.28q.45-.28,1.14-.63a10.55,10.55,0,0,1,1.62-.63,7.42,7.42,0,0,1,2.08-.28,6.25,6.25,0,0,1,2,.29,3.36,3.36,0,0,1,1.35.87,3.55,3.55,0,0,1,.75,1.43,7.78,7.78,0,0,1,.23,2v1.5h-2.77a15,15,0,0,0-3.42.36,8.2,8.2,0,0,0-2.64,1.06,4.87,4.87,0,0,0-2.28,4.29,5.34,5.34,0,0,0,.4,2.12,4.52,4.52,0,0,0,1.16,1.6,5.09,5.09,0,0,0,1.83,1,7.85,7.85,0,0,0,2.46.36,6.6,6.6,0,0,0,2.93-.69,9.19,9.19,0,0,0,2.59-2v1.94a.38.38,0,0,0,.12.3.75.75,0,0,0,.36.15,2.87,2.87,0,0,0,.55.05,2.57,2.57,0,0,0,.55-.05.72.72,0,0,0,.33-.15.39.39,0,0,0,.12-.3V135.75a10.42,10.42,0,0,0-.32-2.68A5.18,5.18,0,0,0,551.81,131.09Zm-.88,12.33a11.38,11.38,0,0,1-2.51,2.16,5,5,0,0,1-2.55.7,3.8,3.8,0,0,1-2.68-.89,3.17,3.17,0,0,1-1-2.4,3.45,3.45,0,0,1,.34-1.54,3.14,3.14,0,0,1,1-1.16,5.19,5.19,0,0,1,1.73-.73,11,11,0,0,1,2.43-.24h3.17Z"/><path d="M571.71,129.67a3.52,3.52,0,0,0-.61,0,5.92,5.92,0,0,0-.65,0,1.28,1.28,0,0,0-.44.12.55.55,0,0,0-.26.36l-5.34,15.19h-.07l-5.45-15.19a1,1,0,0,0-.12-.23.58.58,0,0,0-.21-.16,2.2,2.2,0,0,0-.4-.09,5.82,5.82,0,0,0-.67,0,5.25,5.25,0,0,0-.64,0,.67.67,0,0,0-.35.13.33.33,0,0,0-.11.26,1.43,1.43,0,0,0,.09.43l6.33,17a.77.77,0,0,0,.16.27.64.64,0,0,0,.27.19l-2.47,6.17a.91.91,0,0,0-.07.4.42.42,0,0,0,.14.27.7.7,0,0,0,.36.14,3.15,3.15,0,0,0,.58,0,2.33,2.33,0,0,0,1-.15.77.77,0,0,0,.41-.35l2.42-6.53,6.5-17.43a1.38,1.38,0,0,0,.1-.42.32.32,0,0,0-.12-.26A.67.67,0,0,0,571.71,129.67Z"/><path d="M575.12,144.36a1.84,1.84,0,0,0-1.3.36,3.22,3.22,0,0,0,0,3,1.73,1.73,0,0,0,1.26.35,1.84,1.84,0,0,0,1.3-.36,2.18,2.18,0,0,0,.37-1.5,2.13,2.13,0,0,0-.36-1.47A1.76,1.76,0,0,0,575.12,144.36Z"/></g></g></g></svg>