<svg xmlns="http://www.w3.org/2000/svg" viewBox="0 0 866.04 198.34"><defs><style>.cls-1{fill:#d4145a;stroke:#000;stroke-miterlimit:10;stroke-width:15px;}.cls-2{fill:#fcee21;}</style></defs><g id="Layer_2" data-name="Layer 2"><g id="Paystack"><path class="cls-1" d="M7.5,7.5H767.93a90.61,90.61,0,0,1,90.61,90.61v2.13a90.61,90.61,0,0,1-90.61,90.61H7.5a0,0,0,0,1,0,0V7.5A0,0,0,0,1,7.5,7.5Z"/><g id="Layer_2-2" data-name="Layer 2"><g id="Layer_1-2" data-name="Layer 1-2"><path class="cls-2" d="M104.46,56.6A42.47,42.47,0,0,0,88.54,44.07q-9.95-4.71-25-4.71H26.88v111.9H63.24q13.47,0,23.27-4.31a44.25,44.25,0,0,0,16.22-11.84,48.27,48.27,0,0,0,9.48-17.75,77.52,77.52,0,0,0,3.06-22.2,88.42,88.42,0,0,0-2.39-20.69A48.1,48.1,0,0,0,104.5,56.6m-.12,62.76A41.42,41.42,0,0,1,94,134.73a38.23,38.23,0,0,1-14.34,8.15,53.51,53.51,0,0,1-15.73,2.42H33.78V45.36H62.46a90.59,90.59,0,0,1,9.16.55,48.18,48.18,0,0,1,10.19,2.23,42.41,42.41,0,0,1,9.87,4.94,31.34,31.34,0,0,1,8.47,8.78,48.76,48.76,0,0,1,6,13.71,74.3,74.3,0,0,1,2.22,19.59q0,14.58-4,24.2"/><path class="cls-2" d="M179.52,80.5A31.4,31.4,0,0,0,168.63,72a34.06,34.06,0,0,0-15-3.13,34.73,34.73,0,0,0-16,3.53,33.66,33.66,0,0,0-11.36,9.4,40.3,40.3,0,0,0-6.82,13.6,57.05,57.05,0,0,0-2.27,16.22A58.06,58.06,0,0,0,119.34,128,37,37,0,0,0,126,141.11a31.49,31.49,0,0,0,11.13,8.79,35.66,35.66,0,0,0,15.6,3.2q14.55,0,23.43-7.51T187.67,124h-6q-2.67,11.3-9.74,17.63t-19.17,6.35a28.5,28.5,0,0,1-13-2.82,26.45,26.45,0,0,1-9.28-7.68,34.14,34.14,0,0,1-5.57-11.29A47,47,0,0,1,123,112.67v-.91h65.2a15,15,0,0,1,.07-1.65,16.65,16.65,0,0,0,.08-1.79A50.12,50.12,0,0,0,186.1,93a38.36,38.36,0,0,0-6.66-12.54m-56.18,26.1a48.38,48.38,0,0,1,2.52-12.24,32,32,0,0,1,5.8-10.42,28.83,28.83,0,0,1,9.3-7.2A28.28,28.28,0,0,1,153.61,74a26.4,26.4,0,0,1,12,2.66,28,28,0,0,1,9,7.13,31.23,31.23,0,0,1,5.59,10.35,48.42,48.42,0,0,1,2.19,12.46Z"/><path class="cls-2" d="M288.51,71.41a34.67,34.67,0,0,0-9.24,3.84,28.23,28.23,0,0,0-7.06,6,19.7,19.7,0,0,0-4,7.37h-.47V70.71h-6v74.94a28.74,28.74,0,0,1-4.23.43,5,5,0,0,1-3.14-.85A4.78,4.78,0,0,1,252.8,143a11.89,11.89,0,0,1-.55-3.13c0-1.15-.07-2.3-.07-3.45V89.52a18.82,18.82,0,0,0-6.66-15q-6.66-5.73-21.23-5.72t-22.41,6.69q-7.92,6.66-8.54,20h6q.54-10.84,7.21-16.13T224,74a37.27,37.27,0,0,1,10.34,1.25,19.56,19.56,0,0,1,6.9,3.45,13.77,13.77,0,0,1,3.92,5,14.87,14.87,0,0,1,1.25,6.1,45.11,45.11,0,0,1-.47,7.06,8,8,0,0,1-2.36,4.63,12.79,12.79,0,0,1-5.55,2.84,54,54,0,0,1-10.1,1.47l-9.25.79a95.28,95.28,0,0,0-10.11,1.57,30.33,30.33,0,0,0-9.56,3.69,21.33,21.33,0,0,0-7.15,7c-1.87,3-2.81,6.81-2.81,11.52q0,11.6,7.05,17.15T216,153.13a37.94,37.94,0,0,0,10.64-1.4,32.6,32.6,0,0,0,8.7-3.92,28.91,28.91,0,0,0,6.51-5.73,25.46,25.46,0,0,0,4.08-6.81h.3v4.22a24.82,24.82,0,0,0,.4,4.63,8.83,8.83,0,0,0,1.49,3.69,7.4,7.4,0,0,0,3.21,2.5,14.28,14.28,0,0,0,5.72.94,18.69,18.69,0,0,0,4.7-.59v.59h6v-44a50.19,50.19,0,0,1,.79-7.83,29.35,29.35,0,0,1,1.72-6A21.92,21.92,0,0,1,273,88.57,52,52,0,0,1,276.88,84a26.13,26.13,0,0,1,11.52-6.89,28.18,28.18,0,0,1,10.73-.94v-6a37.85,37.85,0,0,0-10.59,1.18m-42.27,49.18a40.32,40.32,0,0,1-.85,6,26.05,26.05,0,0,1-4,9.25,28.43,28.43,0,0,1-9.08,8.45q-6,3.69-16.14,3.69-9.87,0-15.51-4.31T195,130.39a17.09,17.09,0,0,1,2.19-9.17,16.15,16.15,0,0,1,5.73-5.56,25.62,25.62,0,0,1,7.92-2.88c2.92-.57,5.85-1,8.77-1.32l10-.95a79.77,79.77,0,0,0,9.94-1.4,11.37,11.37,0,0,0,6.66-3.61Z"/><path class="cls-2" d="M337.79,39.36h-38.4v111.9h38.4q13.95,0,24.13-3.92A42.06,42.06,0,0,0,378.69,136a46.77,46.77,0,0,0,9.72-18.34,90.94,90.94,0,0,0,3.13-25q0-27-14-40.11T337.79,39.36m36.76,73a43.59,43.59,0,0,1-5.41,12.15,28.66,28.66,0,0,1-7.45,7.68,36.92,36.92,0,0,1-8.38,4.31,35,35,0,0,1-8,1.87,60,60,0,0,1-6.27.4H314.28V51.9h25.07q10.35,0,17.4,2.9a28.21,28.21,0,0,1,11.52,8.46,34.45,34.45,0,0,1,6.42,13.48,75.28,75.28,0,0,1,2,18,64.58,64.58,0,0,1-2.1,17.67"/><path class="cls-2" d="M526.77,111.36a32.8,32.8,0,0,0-8.46-4.16,101.13,101.13,0,0,0-9.79-2.66c-3.14-.73-6.27-1.43-9.41-2.12a53.73,53.73,0,0,1-8.46-2.5,19.49,19.49,0,0,1-6.2-3.76A7.46,7.46,0,0,1,482,90.43a7.79,7.79,0,0,1,1.57-5.07,11.35,11.35,0,0,1,4.07-3.13,20.67,20.67,0,0,1,5.57-1.65,40.11,40.11,0,0,1,6-.47,30.4,30.4,0,0,1,6.51.71,19.93,19.93,0,0,1,5.86,2.27A12.72,12.72,0,0,1,518,93.74h13.33a29.92,29.92,0,0,0-3.15-12.29,21.1,21.1,0,0,0-7.13-7.85,29.46,29.46,0,0,0-10.21-4.06,63.84,63.84,0,0,0-12.71-1.18,45.11,45.11,0,0,0-10.73,1.33,32,32,0,0,0-9.72,4.08,22.17,22.17,0,0,0-7,7.13,19.31,19.31,0,0,0-2.84,10.46q0,7.85,3.92,12.22a26.46,26.46,0,0,0,9.79,6.82,66.13,66.13,0,0,0,12.79,3.77c4.59.89,8.84,1.87,12.76,3a33.49,33.49,0,0,1,9.79,4.31,8.9,8.9,0,0,1,4,7.88,10,10,0,0,1-1.87,6.18,11.93,11.93,0,0,1-4.79,3.68,24.54,24.54,0,0,1-6.34,1.73,50.23,50.23,0,0,1-6.59.47,38.87,38.87,0,0,1-7.91-.79,21.75,21.75,0,0,1-6.89-2.58,14,14,0,0,1-4.95-4.86,15.09,15.09,0,0,1-2-7.45H454c-1.17,5.25-3.51,9.18-7.07,11.76s-8.25,3.86-13.89,3.86a27.55,27.55,0,0,1-11.44-2.2,22.07,22.07,0,0,1-8-5.88,22.35,22.35,0,0,1-4.54-8.46,31.45,31.45,0,0,1-1.22-10.07h60.65a65.86,65.86,0,0,0-1.34-15.53,44.53,44.53,0,0,0-6-15,35.28,35.28,0,0,0-11.44-11.36q-7.11-4.5-17.93-4.5a37.17,37.17,0,0,0-15.28,3.13,35.88,35.88,0,0,0-12.06,8.78,40,40,0,0,0-7.91,13.32,48.31,48.31,0,0,0-2.83,16.92,65.18,65.18,0,0,0,2.74,17.09,37.21,37.21,0,0,0,7.3,13.47,32.89,32.89,0,0,0,12,8.77A41.33,41.33,0,0,0,432.62,153q13.77,0,22.88-6.9c5.31-4,9-9.8,11-17.28a26.61,26.61,0,0,0,2.87,9.69A23.38,23.38,0,0,0,476.9,147a31.36,31.36,0,0,0,10.79,4.63,57.45,57.45,0,0,0,12.86,1.4,65.88,65.88,0,0,0,12.3-1.17A33.25,33.25,0,0,0,524,147.65a23.59,23.59,0,0,0,8-7.83,22.87,22.87,0,0,0,3-12.22,18.9,18.9,0,0,0-2.27-9.71,20.09,20.09,0,0,0-6-6.51M409.88,94.14a23.31,23.31,0,0,1,4.71-7.28,21.15,21.15,0,0,1,7.13-4.94A23.08,23.08,0,0,1,431,80.11a22.77,22.77,0,0,1,9.17,1.81,23.3,23.3,0,0,1,7.21,4.85,23,23,0,0,1,4.86,7.29,27.28,27.28,0,0,1,2.1,8.93h-46.5a27.78,27.78,0,0,1,2-8.85"/><polygon class="cls-2" points="551.41 122.58 555.33 73.85 555.33 39.36 540.45 39.36 540.45 73.85 544.37 122.58 551.41 122.58"/><rect class="cls-2" x="539.19" y="133.86" width="17.39" height="17.4"/><path class="cls-2" d="M622.53,81.83h-.16a23.83,23.83,0,0,0-10-10.1,29.91,29.91,0,0,0-14.15-3.37q-10.5,0-17.7,4a34.52,34.52,0,0,0-11.64,10.18,40.23,40.23,0,0,0-6.22,13.82,62.16,62.16,0,0,0-1.88,14.81,53.17,53.17,0,0,0,2.28,15.75,37.6,37.6,0,0,0,6.81,13,33,33,0,0,0,11.29,8.85A35.7,35.7,0,0,0,597,152.06a32.42,32.42,0,0,0,14.8-3.52,22.39,22.39,0,0,0,10.42-11h.32v5.32a54.23,54.23,0,0,1-1.34,12.38,25.91,25.91,0,0,1-4.31,9.64,20.8,20.8,0,0,1-7.51,6.27,24.89,24.89,0,0,1-11.15,2.21,36.19,36.19,0,0,1-6.88-.72,24.88,24.88,0,0,1-6.66-2.28,16.52,16.52,0,0,1-5.17-4.07,9.73,9.73,0,0,1-2.27-6.12H563.88a21,21,0,0,0,3.47,11.19,25,25,0,0,0,7.92,7.36,35.6,35.6,0,0,0,10.66,4.08,55.12,55.12,0,0,0,11.51,1.25q19.42,0,28.52-9.87t9.1-29.82V70.24H622.53Zm-2,38.55a33.14,33.14,0,0,1-4.14,10.12,22,22,0,0,1-7.45,7.2,21.47,21.47,0,0,1-11.22,2.74,20.23,20.23,0,0,1-11-2.74,21.24,21.24,0,0,1-7-7.2,31.72,31.72,0,0,1-3.77-10,57.22,57.22,0,0,1-1.09-11,45.79,45.79,0,0,1,1.34-11.12,27.43,27.43,0,0,1,4.23-9.4,21.2,21.2,0,0,1,7.45-6.44,23,23,0,0,1,11-2.43,21.26,21.26,0,0,1,10.65,2.51,20.76,20.76,0,0,1,7.13,6.66,29.33,29.33,0,0,1,4,9.32,44.79,44.79,0,0,1,1.22,10.51,49.49,49.49,0,0,1-1.32,11.25"/><path class="cls-2" d="M704.16,76.66a22,22,0,0,0-8.62-6.11,35.46,35.46,0,0,0-13.33-2.19q-18,0-26.32,14.73h-.32V70.24H643v81h13.34V105.5a32.29,32.29,0,0,1,1.51-10.14,22.66,22.66,0,0,1,4.44-8,19.64,19.64,0,0,1,7.45-5.31,26.68,26.68,0,0,1,10.57-1.89c5.11,0,9.14,1.47,12.06,4.39s4.39,6.9,4.39,11.91v54.8h13.33V98a51,51,0,0,0-1.34-12,22.74,22.74,0,0,0-4.62-9.33"/><path class="cls-2" d="M781.59,84.19a35.47,35.47,0,0,0-11.44-11.36c-4.76-3-10.73-4.47-17.95-4.47a37.12,37.12,0,0,0-15.27,3.13,35.77,35.77,0,0,0-12,8.79A39.9,39.9,0,0,0,717,93.59a48.54,48.54,0,0,0-2.83,16.92,65.18,65.18,0,0,0,2.74,17.09,37.21,37.21,0,0,0,7.3,13.47,32.89,32.89,0,0,0,12,8.77A41.36,41.36,0,0,0,753,153q13.8,0,22.88-6.9t11.72-20.52H774.45q-1.71,8-7.12,11.91t-13.87,3.89A27.49,27.49,0,0,1,742,139.17a22.11,22.11,0,0,1-12.54-14.35,31.66,31.66,0,0,1-1.26-10.1h60.65a64.7,64.7,0,0,0-1.34-15.52,44.61,44.61,0,0,0-6-15M728.19,103a27.51,27.51,0,0,1,2-8.85,23.4,23.4,0,0,1,4.7-7.28A21.15,21.15,0,0,1,742,81.93a23.13,23.13,0,0,1,9.33-1.81,22.73,22.73,0,0,1,9.16,1.81,23.3,23.3,0,0,1,7.21,4.85,23,23,0,0,1,4.86,7.29A27.82,27.82,0,0,1,774.7,103Z"/><path class="cls-2" d="M817.54,72.75q-7,4.68-11.9,14.56h-.3V70.24H792.79v81H806.1v-36a55.48,55.48,0,0,1,1.58-13.88,26.69,26.69,0,0,1,5-10.26,21.44,21.44,0,0,1,9.09-6.42,37.47,37.47,0,0,1,13.63-2.19V68.36q-10.8-.33-17.87,4.39"/></g></g></g></g></svg>